<?xml version="1.0" encoding="utf-8"?>
<!-- Generator: Adobe Illustrator 24.0.0, SVG Export Plug-In . SVG Version: 6.00 Build 0)  -->
<svg version="1.1" id="Layer_1" xmlns="http://www.w3.org/2000/svg" xmlns:xlink="http://www.w3.org/1999/xlink" x="0px" y="0px"
	 width="500px" height="161.5px" viewBox="0 0 500 161.5" style="enable-background:new 0 0 500 161.5;" xml:space="preserve">
<style type="text/css">
	.st0{display:none;}
	.st1{display:inline;}
	.st2{fill:#FFFFFF;}
	.st3{display:inline;fill:#FFFFFF;}
	.st4{fill:url(#SVGID_1_);}
	.st5{fill:url(#SVGID_2_);}
</style>
<g class="st0">
	<g class="st1">
		<g>
			<g>
				<path class="st2" d="M-307.1,270.5c-21.5-4.2-38.3-10.2-50.2-17.9V194c14.3,9,31.1,15.5,50.8,20.9c19.7,5.4,38.3,7.8,55.6,7.8
					s29.9-1.8,38.3-4.8c7.8-3,12-9,12-17.3c0-6.6-2.4-12-6-16.1c-4.2-4.2-10.8-7.8-20.3-11.4c-9.6-3.6-23.3-7.8-43-12.6
					c-21.5-6-38.9-12.6-51.4-19.1s-22.1-14.9-28.1-24.5c-7.2-10.2-10.2-22.7-10.2-38.9c0-26.3,10.2-46,31.1-59.2
					s48.4-19.7,83.7-19.7c17.9,0,36.5,1.8,54.4,5.4s32.3,8.4,42.4,14.3V75c-10.8-6.6-23.9-12-40-15.5c-15.5-4.2-31.7-6-47.8-6
					c-17.9,0-31.1,1.8-40,5.4c-9,3.6-13.7,10.2-13.7,19.7c0,6.6,2.4,12,7.2,15.5s11.4,7.2,19.1,9.6c7.8,3,22.7,6.6,43.6,12.6
					c22.7,6,40,13.2,52.6,20.3c12.6,7.2,21.5,16.1,27.5,26.3c5.4,10.2,8.4,22.7,8.4,38.3c0,23.3-10.2,41.8-29.9,55.6
					c-19.7,13.7-48.4,20.9-86.1,20.9C-265.9,277.1-286.2,274.7-307.1,270.5z"/>
				<path class="st2" d="M300.8,252.6c-14.9-16.1-22.1-38.3-22.1-67.5V59.5h-39.5V6.9h39.5v-78.3h68.7V6.9h62.8v52.6h-62.8v117.2
					c0,16.7,3,28.7,9.6,35.9c6,7.2,17.3,10.8,34.1,10.8c11.4,0,22.1-2.4,33.5-7.8v52.6c-15.5,6-34.7,9.6-57.4,9.6
					C337.9,277.1,315.8,268.8,300.8,252.6z"/>
				<path class="st2" d="M483.7-49.8c-7.2-7.2-11.4-16.1-11.4-27.5c0-10.8,3.6-20.3,11.4-27.5c7.2-7.2,16.7-11.4,27.5-11.4
					s20.3,3.6,28.1,11.4c7.8,7.2,11.4,16.7,11.4,27.5s-3.6,19.7-11.4,27.5c-7.8,7.2-16.7,10.8-28.1,10.8
					C500.5-38.5,491.5-42.1,483.7-49.8z M476.5,6.9h69.9v261.8h-69.9L476.5,6.9L476.5,6.9z"/>
				<path class="st2" d="M678,260.4c-23.3-10.8-41.2-26.9-53.8-47.2c-12.6-20.9-19.1-45.4-19.1-74.7s6.6-53.8,19.1-74.7
					C637.4,42.9,655.3,26.7,678,16c23.3-11.4,50.2-16.7,80.7-16.7c40.6,0,73.5,7.8,97.4,23.9v55C832.2,61.3,802.3,53,765.9,53
					c-28.1,0-50.2,7.2-66.9,20.9s-24.5,35.3-24.5,64.6c0,28.7,8.4,50.2,24.5,64c16.7,13.7,38.3,20.9,65.8,20.9
					c36.5,0,68.1-9,95-26.3v54.4c-13.2,9-28.1,14.9-44.2,19.1c-16.7,4.2-35.9,6-57.4,6C727.6,277.1,700.7,271.7,678,260.4z"/>
			</g>
		</g>
	</g>
	<path class="st3" d="M102.4,200c8.4-8.4,14.3-16.7,20.3-25.7c6.6-10.8,11.4-22.7,14.9-34.7c4.2-14.3,4.8-29.3,3.6-44.2
		c-0.6-10.8-3.6-20.9-7.8-30.5c-2.4-5.4-5.4-10.8-9-16.1c-6-9-12.6-16.7-21.5-22.7c-5.4-4.2-11.4-7.8-17.3-10.8
		c-4.8-2.4-10.2-4.2-14.9-5.4c-1.2,0-3-0.6-3-1.8s1.8-1.2,3-1.2c12.6,0.6,24.5,1.8,36.5,5.4c9.6,3,19.1,6.6,27.5,12
		c7.2,4.2,14.3,9,20.3,14.3c3.6,3,7.2,5.4,10.2,9c6,7.2,12,13.7,16.7,21.5c9,14.3,15.5,29.9,18.5,46.6c2.4,12,3,24.5,1.8,36.5
		c-1.2,14.3-4.8,27.5-10.2,40.6c-3.6,8.4-7.8,16.1-13.2,23.9c-5.4,7.8-10.8,14.9-17.9,20.9c-6.6,6-13.7,12-21.5,16.7
		c-6,3.6-12,6.6-17.9,9.6c-16.1,6.6-32.3,10.2-50.2,7.8c-11.4-1.2-21.5-4.8-31.7-10.2c-11.4-6-22.1-13.7-29.9-23.9
		c-14.9-17.9-23.3-38.9-22.7-62.8c0-4.8,0.6-9,1.2-13.7c0-1.2,0-3,1.8-3s1.2,1.8,1.2,3c0.6,6,2.4,11.4,4.8,16.7
		c4.2,10.2,10.8,18.5,19.1,25.1c14.9,12,32.3,16.1,50.8,13.7c7.2-1.2,14.3-3.6,20.9-7.2C93.4,207.8,98.8,203.6,102.4,200z"/>
	<path class="st3" d="M14.5,84c-8.4,8.4-14.3,17.3-19.7,26.3C-11.8,121.1-16,133-19.5,145c-3.6,14.3-4.2,29.3-3,44.2
		c1.2,10.8,4.2,20.9,8.4,30.5c2.4,5.4,5.4,10.8,9,16.1c6,8.4,12.6,16.7,21.5,22.7c6,3.6,11.4,7.8,17.9,10.2
		c4.8,2.4,10.2,4.2,15.5,5.4c1.2,0,3,0.6,3,1.8c0,1.2-1.8,1.2-3,1.2c-12.6-0.6-24.5-1.8-36.5-4.8c-9.6-3-19.1-6.6-28.1-11.4
		c-7.2-4.2-14.3-9-20.9-14.3c-3.6-3-7.2-5.4-10.2-9c-6-6.6-12-13.7-17.3-21.5c-9.6-14.3-15.5-29.9-19.1-46.6
		c-2.4-12-3-24.5-2.4-36.5c1.2-14.3,4.2-28.1,9.6-41.2c3.6-8.4,7.8-16.1,12.6-23.9c5.4-7.8,10.8-14.9,17.3-21.5
		c6.6-6,13.7-12,21.5-16.7c6-3.6,11.4-7.2,17.9-9.6c16.1-7.2,32.3-10.8,49.6-8.4c11.4,1.2,21.5,4.8,31.7,9.6
		c11.4,6,22.1,13.2,30.5,23.3c14.9,17.9,23.9,38.3,23.9,62.2c0,4.8-0.6,9-1.2,13.7c0,1.2,0,3-1.2,3c-1.8,0-1.2-1.8-1.8-3
		c-0.6-6-2.4-11.4-4.8-16.7c-4.2-10.2-11.4-17.9-19.7-25.1c-14.9-12-32.3-16.1-50.8-12.6c-7.2,1.2-14.3,3.6-20.9,7.2
		C22.9,75.7,18.1,79.9,14.5,84z"/>
</g>
<g>
	<g>
		<g>
			<g>
				<path class="st2" d="M21.6,158.6c-8.8-1.7-15.7-4.2-20.6-7.4v-24c5.9,3.7,12.7,6.4,20.8,8.6c8.1,2.2,15.7,3.2,22.8,3.2
					s12.3-0.7,15.7-2c3.2-1.2,4.9-3.7,4.9-7.1c0-2.7-1-4.9-2.5-6.6c-1.7-1.7-4.4-3.2-8.3-4.7s-9.6-3.2-17.6-5.1
					c-8.8-2.5-15.9-5.1-21.1-7.8s-9.1-6.1-11.5-10c-3-4.3-4.2-9.4-4.2-16c0-10.8,4.2-18.9,12.7-24.3s19.9-8.1,34.3-8.1
					c7.4,0,15,0.7,22.3,2.2s13.2,3.4,17.4,5.9v23c-4.4-2.7-9.8-4.9-16.4-6.4c-6.4-1.7-13-2.5-19.6-2.5c-7.4,0-12.7,0.7-16.4,2.2
					s-5.6,4.2-5.6,8.1c0,2.7,1,4.9,2.9,6.4c2,1.5,4.7,2.9,7.8,3.9c3.2,1.2,9.3,2.7,17.9,5.1c9.3,2.5,16.4,5.4,21.6,8.3
					s8.8,6.6,11.3,10.8c2.2,4.2,3.4,9.3,3.4,15.7c0,9.6-4.2,17.2-12.3,22.8s-19.9,8.6-35.3,8.6C38.5,161.3,30.1,160.3,21.6,158.6z"
					/>
				<path class="st2" d="M270.8,151.2c-6.1-6.6-9.1-15.7-9.1-27.7V72.1h-16.2V50.5h16.2V18.4H290v32.1h25.7v21.6H290v48
					c0,6.9,1.2,11.8,3.9,14.7c2.5,2.9,7.1,4.4,14,4.4c4.7,0,9.1-1,13.7-3.2v21.6c-6.4,2.5-14.2,3.9-23.5,3.9
					C286,161.3,277,157.8,270.8,151.2z"/>
				<path class="st2" d="M345.8,27.2c-2.9-2.9-4.7-6.6-4.7-11.3c0-4.4,1.5-8.3,4.7-11.3c2.9-2.9,6.9-4.7,11.3-4.7s8.3,1.5,11.5,4.7
					c3.2,2.9,4.7,6.9,4.7,11.3s-1.5,8.1-4.7,11.3c-3.2,2.9-6.9,4.4-11.5,4.4C352.7,31.9,349,30.4,345.8,27.2z M342.9,50.5h28.7
					v107.4h-28.7V50.5z"/>
				<path class="st2" d="M425.5,154.4c-9.6-4.4-16.9-11-22.1-19.4c-5.1-8.6-7.8-18.6-7.8-30.6s2.7-22.1,7.8-30.6
					c5.4-8.6,12.7-15.2,22.1-19.6c9.6-4.7,20.6-6.9,33.1-6.9c16.7,0,30.1,3.2,40,9.8v22.5c-9.8-6.9-22.1-10.3-37-10.3
					c-11.5,0-20.6,2.9-27.5,8.6c-6.9,5.6-10,14.5-10,26.5c0,11.8,3.4,20.6,10,26.2c6.9,5.6,15.7,8.6,27,8.6c15,0,27.9-3.7,39-10.8
					v22.3c-5.4,3.7-11.5,6.1-18.1,7.8c-6.9,1.7-14.7,2.5-23.5,2.5C445.8,161.3,434.8,159.1,425.5,154.4z"/>
			</g>
		</g>
	</g>
	
		<linearGradient id="SVGID_1_" gradientUnits="userSpaceOnUse" x1="142.0822" y1="735.4957" x2="230.5749" y2="735.4957" gradientTransform="matrix(1 0 0 1 0 -630.29)">
		<stop  offset="0" style="stop-color:#E62577"/>
		<stop  offset="1" style="stop-color:#E84B29"/>
	</linearGradient>
	<path class="st4" d="M189.5,129.7c3.4-3.4,5.9-6.9,8.3-10.5c2.7-4.4,4.7-9.3,6.1-14.2c1.7-5.9,2-12,1.5-18.1
		c-0.2-4.4-1.5-8.6-3.2-12.5c-1-2.2-2.2-4.4-3.7-6.6c-2.5-3.7-5.1-6.9-8.8-9.3c-2.2-1.7-4.7-3.2-7.1-4.4c-2-1-4.2-1.7-6.1-2.2
		c-0.5,0-1.2-0.2-1.2-0.7s0.7-0.5,1.2-0.5c5.1,0.2,10,0.7,15,2.2c3.9,1.2,7.8,2.7,11.3,4.9c2.9,1.7,5.9,3.7,8.3,5.9
		c1.5,1.2,2.9,2.2,4.2,3.7c2.5,2.9,4.9,5.6,6.9,8.8c3.7,5.9,6.4,12.3,7.6,19.1c1,4.9,1.2,10,0.7,15c-0.5,5.9-2,11.3-4.2,16.7
		c-1.5,3.4-3.2,6.6-5.4,9.8s-4.4,6.1-7.4,8.6c-2.7,2.5-5.6,4.9-8.8,6.9c-2.5,1.5-4.9,2.7-7.4,3.9c-6.6,2.7-13.2,4.2-20.6,3.2
		c-4.7-0.5-8.8-2-13-4.2c-4.7-2.5-9.1-5.6-12.3-9.8c-6.1-7.4-9.6-15.9-9.3-25.7c0-2,0.2-3.7,0.5-5.6c0-0.5,0-1.2,0.7-1.2
		s0.5,0.7,0.5,1.2c0.2,2.5,1,4.7,2,6.9c1.7,4.2,4.4,7.6,7.8,10.3c6.1,4.9,13.2,6.6,20.8,5.6c2.9-0.5,5.9-1.5,8.6-2.9
		C185.8,132.8,188,131.1,189.5,129.7z"/>
	
		<linearGradient id="SVGID_2_" gradientUnits="userSpaceOnUse" x1="112.5005" y1="736.8853" x2="200.5791" y2="736.8853" gradientTransform="matrix(1 0 0 1 0 -630.29)">
		<stop  offset="0" style="stop-color:#E62577"/>
		<stop  offset="1" style="stop-color:#E84B29"/>
	</linearGradient>
	<path class="st5" d="M153.4,82.1c-3.4,3.4-5.9,7.1-8.1,10.8c-2.7,4.4-4.4,9.3-5.9,14.2c-1.5,5.9-1.7,12-1.2,18.1
		c0.5,4.4,1.7,8.6,3.4,12.5c1,2.2,2.2,4.4,3.7,6.6c2.5,3.4,5.1,6.9,8.8,9.3c2.5,1.5,4.7,3.2,7.4,4.2c2,1,4.2,1.7,6.4,2.2
		c0.5,0,1.2,0.2,1.2,0.7s-0.7,0.5-1.2,0.5c-5.1-0.2-10-0.7-15-2c-3.9-1.2-7.8-2.7-11.5-4.7c-2.9-1.7-5.9-3.7-8.6-5.9
		c-1.5-1.2-2.9-2.2-4.2-3.7c-2.5-2.7-4.9-5.6-7.1-8.8c-3.9-5.9-6.4-12.3-7.8-19.1c-1-4.9-1.2-10-1-15c0.5-5.9,1.7-11.5,3.9-16.9
		c1.5-3.4,3.2-6.6,5.1-9.8c2.2-3.2,4.4-6.1,7.1-8.8c2.7-2.5,5.6-4.9,8.8-6.9c2.5-1.5,4.7-2.9,7.4-3.9c6.6-2.9,13.2-4.4,20.3-3.4
		c4.7,0.5,8.8,2,13,3.9c4.7,2.5,9.1,5.4,12.5,9.6c6.1,7.4,9.8,15.7,9.8,25.5c0,2-0.2,3.7-0.5,5.6c0,0.5,0,1.2-0.5,1.2
		c-0.7,0-0.5-0.7-0.7-1.2c-0.2-2.5-1-4.7-2-6.9c-1.7-4.2-4.7-7.4-8.1-10.3c-6.1-4.9-13.2-6.6-20.8-5.1c-2.9,0.5-5.9,1.5-8.6,2.9
		C156.9,78.7,154.9,80.4,153.4,82.1z"/>
</g>
</svg>
